{
  "source": "C:\\Users\\Peter\\Desktop\\stuff\\MIUN\\quantitative_research\\video_compression\\videos\\BVI-HD\\BVI-HD_CDVL_videos\\ORIG\\PlasmaSlowRandom_1920x1080_60fps.mp4",
  "output": "C:\\Users\\Peter\\Desktop\\stuff\\MIUN\\quantitative_research\\video_compression\\compressed_videos\\BVI-HD\\h264\\1.5\\PlasmaSlowRandom_1920x1080_60fps_h264.mp4",
  "codec": "h264",
  "ok": "Input #0, mov,mp4,m4a,3gp,3g2,mj2, from 'C:\\Users\\Peter\\Desktop\\stuff\\MIUN\\quantitative_research\\video_compression\\videos\\BVI-HD\\BVI-HD_CDVL_videos\\ORIG\\PlasmaSlowRandom_1920x1080_60fps.mp4':\n  Metadata:\n    major_brand     : isom\n    minor_version   : 512\n    compatible_brands: isomiso2avc1mp41\n    encoder         : Lavf54.28.101\n  Duration: 00:00:05.00, start: 0.000000, bitrate: 23030 kb/s\n  Stream #0:0[0x1](und): Video: h264 (High 4:4:4 Predictive) (avc1 / 0x31637661), yuv420p(progressive), 1920x1080, 23026 kb/s, 60 fps, 60 tbr, 60 tbn (default)\n    Metadata:\n      handler_name    : VideoHandler\n      vendor_id       : [0][0][0][0]\n[out#0/mp4 @ 000001c00cfca600] Codec AVOption b:a (set bitrate (in bits/s)) has not been used for any stream. The most likely reason is either wrong type (e.g. a video option with no video streams) or that it is a private option of some decoder which was not actually used for any stream.\nStream mapping:\n  Stream #0:0 -> #0:0 (h264 (native) -> h264 (libx264))\nPress [q] to stop, [?] for help\n[libx264 @ 000001c00d4a4840] using cpu capabilities: MMX2 SSE2Fast SSSE3 SSE4.2 AVX FMA3 BMI2 AVX2\n[libx264 @ 000001c00d4a4840] profile High, level 5.0, 4:2:0, 8-bit\n[libx264 @ 000001c00d4a4840] 264 - core 165 r3222 b35605a - H.264/MPEG-4 AVC codec - Copyleft 2003-2025 - http://www.videolan.org/x264.html - options: cabac=1 ref=5 deblock=1:0:0 analyse=0x3:0x113 me=hex subme=8 psy=1 psy_rd=1.00:0.00 mixed_ref=1 me_range=16 chroma_me=1 trellis=2 8x8dct=1 cqm=0 deadzone=21,11 fast_pskip=1 chroma_qp_offset=-2 threads=18 lookahead_threads=3 sliced_threads=0 nr=0 decimate=1 interlaced=0 bluray_compat=0 constrained_intra=0 bframes=3 b_pyramid=2 b_adapt=1 b_bias=0 direct=3 weightb=1 open_gop=0 weightp=2 keyint=250 keyint_min=25 scenecut=40 intra_refresh=0 rc_lookahead=50 rc=cbr mbtree=1 bitrate=1500 ratetol=1.0 qcomp=0.60 qpmin=0 qpmax=69 qpstep=4 vbv_maxrate=1500 vbv_bufsize=1500 nal_hrd=none filler=0 ip_ratio=1.40 aq=1:1.00\nOutput #0, mp4, to 'C:\\Users\\Peter\\Desktop\\stuff\\MIUN\\quantitative_research\\video_compression\\compressed_videos\\BVI-HD\\h264\\1.5\\PlasmaSlowRandom_1920x1080_60fps_h264.mp4':\n  Metadata:\n    major_brand     : isom\n    minor_version   : 512\n    compatible_brands: isomiso2avc1mp41\n    encoder         : Lavf62.3.100\n  Stream #0:0(und): Video: h264 (avc1 / 0x31637661), yuv420p(tv, progressive), 1920x1080, q=2-31, 1500 kb/s, 60 fps, 15360 tbn (default)\n    Metadata:\n      encoder         : Lavc62.11.100 libx264\n      handler_name    : VideoHandler\n      vendor_id       : [0][0][0][0]\n    Side data:\n      cpb: bitrate max/min/avg: 1500000/0/1500000 buffer size: 1500000 vbv_delay: N/A\nframe=    0 fps=0.0 q=0.0 size=       0KiB time=N/A bitrate=N/A speed=N/A elapsed=0:00:00.54    \nframe=   32 fps= 29 q=29.0 size=       0KiB time=00:00:00.50 bitrate=   0.8kbits/s speed=0.446x elapsed=0:00:01.12    \nframe=   92 fps= 56 q=30.0 size=       0KiB time=00:00:01.50 bitrate=   0.3kbits/s speed=0.918x elapsed=0:00:01.63    \nframe=  144 fps= 66 q=30.0 size=     256KiB time=00:00:02.36 bitrate= 886.3kbits/s speed=1.09x elapsed=0:00:02.16    \nframe=  191 fps= 71 q=30.0 size=     256KiB time=00:00:03.15 bitrate= 665.9kbits/s speed=1.16x elapsed=0:00:02.70    \nframe=  268 fps= 83 q=28.0 size=     512KiB time=00:00:04.43 bitrate= 946.2kbits/s speed=1.37x elapsed=0:00:03.23    \n[mp4 @ 000001c00cfca700] Starting second pass: moving the moov atom to the beginning of the file\n[out#0/mp4 @ 000001c00cfca600] video:810KiB audio:0KiB subtitle:0KiB other streams:0KiB global headers:0KiB muxing overhead: 0.537386%\nframe=  300 fps= 90 q=-1.0 Lsize=     815KiB time=00:00:04.96 bitrate=1343.7kbits/s speed=1.48x elapsed=0:00:03.34    \n[libx264 @ 000001c00d4a4840] frame I:3     Avg QP:10.92  size:  6498\n[libx264 @ 000001c00d4a4840] frame P:76    Avg QP:20.85  size:  3870\n[libx264 @ 000001c00d4a4840] frame B:221   Avg QP:24.35  size:  2332\n[libx264 @ 000001c00d4a4840] consecutive B-frames:  1.3%  1.3%  0.0% 97.3%\n[libx264 @ 000001c00d4a4840] mb I  I16..4: 92.0%  7.9%  0.1%\n[libx264 @ 000001c00d4a4840] mb P  I16..4:  1.2%  3.4%  0.1%  P16..4:  1.5%  0.5%  0.1%  0.0%  0.0%    skip:93.3%\n[libx264 @ 000001c00d4a4840] mb B  I16..4:  0.0%  0.3%  0.0%  B16..8:  2.9%  1.1%  0.1%  direct: 0.3%  skip:95.3%  L0:47.9% L1:43.5% BI: 8.6%\n[libx264 @ 000001c00d4a4840] 8x8 transform intra:48.4% inter:98.5%\n[libx264 @ 000001c00d4a4840] direct mvs  spatial:95.5% temporal:4.5%\n[libx264 @ 000001c00d4a4840] coded y,uvDC,uvAC intra: 25.4% 38.6% 34.8% inter: 1.1% 2.2% 0.6%\n[libx264 @ 000001c00d4a4840] i16 v,h,dc,p: 96%  2%  1%  1%\n[libx264 @ 000001c00d4a4840] i8 v,h,dc,ddl,ddr,vr,hd,vl,hu: 13% 11% 27%  6%  9%  8% 11%  7%  9%\n[libx264 @ 000001c00d4a4840] i4 v,h,dc,ddl,ddr,vr,hd,vl,hu:  8% 12%  6%  9% 16% 11% 18%  7% 13%\n[libx264 @ 000001c00d4a4840] i8c dc,h,v,p: 79%  9%  6%  6%\n[libx264 @ 000001c00d4a4840] Weighted P-Frames: Y:1.3% UV:1.3%\n[libx264 @ 000001c00d4a4840] ref P L0: 57.2%  3.2% 19.3% 11.1%  9.1%  0.1%\n[libx264 @ 000001c00d4a4840] ref B L0: 82.1% 12.2%  4.3%  1.4%\n[libx264 @ 000001c00d4a4840] ref B L1: 96.5%  3.5%\n[libx264 @ 000001c00d4a4840] kb/s:1326.39\n",
  "seconds": 3.596313238143921,
  "probe_out": {}
}